<svg width="512" height="512" viewBox="0 0 512 512" fill="none" xmlns="http://www.w3.org/2000/svg">
<path d="M358.857 0H153.142C68.699 0 0 68.7 0 153.143V358.857C0 443.3 68.699 512 153.141 512H358.856C443.299 512 511.998 443.3 511.998 358.857V153.143C511.999 68.7 443.299 0 358.857 0ZM482.01 358.857C482.01 426.763 426.763 482.01 358.858 482.01H153.142C85.235 482.01 29.989 426.763 29.989 358.857V153.143C29.989 85.237 85.235 29.99 153.142 29.99H358.857C426.763 29.99 482.009 85.237 482.009 153.143L482.01 358.857Z" fill="black"/>
<path d="M206.012 139.62H164.849V98.457C164.849 90.176 158.135 83.462 149.854 83.462C141.573 83.462 134.859 90.176 134.859 98.457V139.619H93.697C85.416 139.619 78.702 146.333 78.702 154.614C78.702 162.895 85.416 169.609 93.697 169.609H134.859V210.771C134.859 219.052 141.573 225.766 149.854 225.766C158.135 225.766 164.849 219.052 164.849 210.771V169.609H206.011C214.292 169.609 221.006 162.895 221.006 154.614C221.007 146.333 214.293 139.62 206.012 139.62ZM414.545 139.62H302.231C293.95 139.62 287.236 146.334 287.236 154.615C287.236 162.896 293.95 169.61 302.231 169.61H414.546C422.827 169.61 429.541 162.896 429.541 154.615C429.541 146.334 422.827 139.62 414.545 139.62ZM171.058 367.189L200.164 338.083C206.022 332.227 206.022 322.733 200.166 316.877C194.31 311.021 184.815 311.021 178.96 316.877L149.854 345.983L120.748 316.877C114.893 311.021 105.398 311.021 99.542 316.877C93.686 322.733 93.686 332.227 99.542 338.083L128.648 367.189L99.542 396.295C93.686 402.151 93.686 411.645 99.542 417.501C100.933 418.896 102.585 420.002 104.405 420.755C106.224 421.509 108.175 421.896 110.144 421.894C113.981 421.894 117.819 420.43 120.746 417.501L149.852 388.395L178.958 417.501C181.886 420.429 185.724 421.894 189.56 421.894C193.396 421.894 197.235 420.43 200.162 417.501C206.018 411.645 206.018 402.151 200.162 396.295L171.058 367.189ZM414.545 322.204H302.231C293.95 322.204 287.236 328.918 287.236 337.199C287.236 345.48 293.95 352.194 302.231 352.194H414.546C422.827 352.194 429.541 345.48 429.541 337.199C429.541 328.918 422.827 322.204 414.545 322.204ZM414.545 382.184H302.231C293.95 382.184 287.236 388.898 287.236 397.179C287.236 405.46 293.95 412.174 302.231 412.174H414.546C422.827 412.174 429.541 405.46 429.541 397.179C429.541 388.898 422.827 382.184 414.545 382.184Z" fill="black"/>
</svg>
