<svg width="456" height="378" viewBox="0 0 456 378" fill="none" xmlns="http://www.w3.org/2000/svg">
<path d="M426.178 151.431C388.892 64.5732 311.383 -0.472822 226.955 2.07218C190.476 0.876179 126.365 22.2122 86.5872 63.3062C27.9032 116.535 -25.0168 259.977 17.2512 312.928C54.8432 384.638 268.97 386.899 361.862 360.982C465.027 330.107 473.994 260.247 426.177 151.432L426.178 151.431ZM227.033 369.578C38.9062 367.722 -36.2718 322.184 33.3702 153.846C47.9902 119.593 67.2572 90.6222 90.6382 67.7362C208.794 -42.8028 356.988 8.30719 420.708 153.9C451.898 223.015 456.194 273.435 433.846 308.038C395.216 363.768 306.573 368.283 227.034 369.578H227.033Z" fill="black"/>
<path d="M370.627 214.287C370.533 213.748 370.282 213.249 369.904 212.853L369.883 212.828C369.743 212.687 369.589 212.559 369.424 212.448C368.733 211.944 367.686 211.692 366.929 211.961C366.371 212.089 365.868 212.389 365.489 212.819C365.469 212.846 365.442 212.872 365.419 212.899C365.059 213.229 364.719 213.603 364.381 213.974C364.057 214.284 363.738 214.601 363.451 214.936L363.421 214.965C363.397 214.989 363.378 215.017 363.354 215.042C351.76 226.813 335.95 238.203 332.484 240.656C287.808 244.853 180.407 230.878 147.418 211.506C146.781 209.636 145.805 207.141 144.515 204.085C144.629 203.501 144.565 202.895 144.331 202.348C144.097 201.8 143.705 201.335 143.204 201.012C142.438 199.242 141.661 197.476 140.871 195.716C143.056 196.265 145.162 196.964 147.154 197.841C147.534 198.01 147.945 198.097 148.361 198.097C151.536 198.124 152.531 193.639 149.571 192.35C145.421 190.522 140.892 189.307 136.111 188.738L136.105 188.736C131.854 188.235 127.395 188.232 122.855 188.733H122.848C113.984 189.698 107.718 192.209 107.455 192.315C106.719 192.614 106.131 193.193 105.821 193.925C105.511 194.657 105.505 195.482 105.803 196.219C106.423 197.769 108.21 198.491 109.707 197.877C109.751 197.859 113.291 196.456 118.653 195.43C110.015 220.484 108.568 242.226 114.369 260.111L114.37 260.115C118.896 274.018 127.86 285.859 141.012 295.31C162.362 310.913 196.203 319.497 226.503 322.557C265.567 327.867 336.063 324.587 358.014 308.322C364.876 303.876 369.109 298.555 370.596 292.51C372.842 283.362 374.109 272.839 374.362 261.231V261.227C375.229 242.235 370.751 213.239 370.626 214.287H370.627ZM230.355 316.924C231.194 312.284 232.105 307.378 232.468 304.079C232.472 304.044 232.478 304.009 232.481 303.973C232.484 303.954 232.481 303.937 232.484 303.918L232.493 303.881V303.88C232.67 302.447 232.928 301.315 233.46 300.145C234.386 298.191 235.897 296.873 237.775 296.075C243.093 293.906 251.573 295.172 257.588 295.971C260.696 296.448 262.947 297.016 264.591 297.745C264.749 297.819 264.917 297.891 265.063 297.967L265.07 297.971C266.388 298.663 267.23 299.461 267.778 300.307C268.355 301.253 268.636 302.376 268.753 303.717C268.805 304.748 268.742 305.747 268.824 306.631V306.635C268.777 309.658 268.206 314.412 267.693 318.887C255.223 318.833 242.762 318.178 230.355 316.924ZM146.895 292.096C148.426 289.398 150.705 285.226 152.425 280.786C153.92 278.159 155.321 276.322 156.879 275.106C161.266 271.796 166.13 274.078 172.134 277C174.178 278.128 176.553 279.227 178.483 279.929C180.291 280.667 182.233 281.383 183.515 282.209C185.226 283.337 186.364 284.882 186.638 287.61C186.652 287.744 186.658 287.88 186.666 288.017C186.774 290.191 186.385 293.102 185.419 297.141L185.415 297.157L185.414 297.169C185.411 297.207 185.398 297.242 185.388 297.279C185.37 297.347 185.353 297.418 185.338 297.489C184.602 300.488 183.543 303.998 182.192 307.937C168.16 303.721 156.328 298.414 146.895 292.096ZM253.854 243.674C252.224 261.036 244.794 263.456 226.254 259.719C218.929 258.017 210.069 255.604 213.468 246.079C214.508 243.825 215.522 241.166 216.55 238.004C228.917 240.315 241.359 242.206 253.854 243.674ZM295.884 251.221C296.047 257.601 295.133 261.551 293.012 263.603C289.685 266.826 281.882 266.38 272.005 265.821C254.675 264.896 258.419 258.803 259.625 246.145C259.66 245.896 259.689 245.625 259.715 245.371V245.37C259.752 245.038 259.785 244.695 259.818 244.344C271.012 245.534 283.064 246.457 295.641 246.898C295.767 248.336 295.848 249.778 295.884 251.221ZM273.799 318.304C274.335 313.612 274.759 309.934 274.823 306.72C275.223 298.607 276.683 297.328 296.666 296.656C302.53 296.713 308.766 296.303 311.303 299.542C311.663 300.119 311.852 300.776 311.967 301.509C312.051 302.197 312.054 302.883 312.159 303.513C312.383 306.412 311.974 311.532 311.618 316.305C300.288 317.85 287.538 318.732 273.733 318.875L273.799 318.303V318.304ZM318.147 303.124C318.643 294.349 320.247 293.901 334.907 289.843C338.677 288.805 346.713 286.087 349.437 289.909L349.441 289.913L349.444 289.917C351.442 292.347 352.291 298.651 353.122 304.293C344.911 309.137 332.76 312.897 317.702 315.39C318.075 310.361 318.365 306.355 318.147 303.125V303.124ZM364.063 222.748C367.212 235.215 365.593 249.018 351.493 254.32H351.491L351.488 254.321C343.168 257.503 338.483 255.8 335.925 246.949C335.825 246.562 335.722 246.176 335.615 245.791C338.204 243.977 352.155 234.059 364.063 222.748ZM311.578 247.184C317.533 247.184 323.575 247.054 329.664 246.789C333.19 258.682 330.047 263.197 317.955 265.006C303.469 266.913 304.477 263.868 301.873 250.806C301.837 249.559 301.77 248.314 301.671 247.07C304.945 247.142 308.247 247.184 311.578 247.184ZM210.613 236.859C210.494 237.216 210.373 237.572 210.249 237.927C209.386 239.834 208.514 241.867 207.865 243.903C205.655 248.584 203.529 250.94 200.489 251.688C197.274 252.257 192.44 251.343 184.235 248.792C180.627 247.552 177.97 246.638 175.33 244.524C171.14 241.366 172.605 235.394 174.726 230.086L174.729 230.074C174.961 229.49 175.169 228.942 175.353 228.442C186.059 231.487 198.655 234.487 210.613 236.859ZM161.001 223.987C163.679 224.906 166.556 225.829 169.581 226.747C169.435 227.143 169.266 227.562 169.098 228.006C165.668 236.571 163.004 238.373 162.476 238.369C156.872 238.102 139.148 229.347 137.163 226.428C136.752 224.955 138.061 219.647 141.192 211.913C142.764 215.909 141.631 217.006 161.001 223.987ZM120.549 259.611C121.915 257.684 123.307 256.343 124.749 255.545C127.306 254.172 130.219 254.645 132.952 255.943C137.542 258.128 142.291 262.403 146.777 265.202C150.249 267.366 148.769 273.574 146.921 278.396C145.455 282.239 143.464 285.956 142.005 288.551C131.697 280.521 124.494 270.802 120.549 259.611ZM187.975 309.576C189.37 305.483 190.428 301.966 191.21 298.73C191.224 298.676 191.235 298.622 191.248 298.567C192.284 294.437 193.822 290.656 197.556 289.042C202.946 287.058 210.278 289.537 216.559 290.955L216.574 290.959C219.33 291.714 221.075 292.175 223.261 293.319C224.41 293.919 225.427 294.77 226.048 295.911C227.145 298.172 226.748 300.773 226.533 303.2L226.523 303.264C226.176 306.487 225.207 311.671 224.377 316.271C210.568 314.618 199.502 312.667 187.975 309.576ZM358.605 300.4C357.745 294.718 356.858 290.129 354.575 286.82C353.656 283.477 355.699 281.753 357.795 278.87C359.823 276.27 362.347 273.034 364.766 268.198C366.399 264.937 367.626 263.578 368.301 263.02C367.967 273.423 366.788 282.863 364.771 291.08C363.948 294.424 361.877 297.545 358.606 300.4H358.605ZM115.163 167.213C115.138 167.606 115.191 168.001 115.318 168.373C115.446 168.746 115.645 169.09 115.906 169.386C116.166 169.682 116.482 169.923 116.836 170.097C117.19 170.27 117.574 170.372 117.967 170.397C118.577 170.437 179.452 174.502 218.247 193.626C220.363 194.781 223.11 192.664 222.494 190.31C233.752 186.067 238.717 170.714 234.763 159.877C224.7 137.801 190.529 124.477 155.943 120.946C115.747 116.533 102.692 147.12 115.469 166.076C115.292 166.431 115.188 166.818 115.163 167.213ZM229.131 161.947C232.807 171.944 225.793 189.529 212.074 184.287C199.626 179.172 185.93 175.353 173.404 172.557C193.436 167.275 190.088 142.591 180.42 131.288C200.879 136.798 222.285 146.975 229.13 161.948L229.131 161.947Z" fill="black"/>
<path d="M254.72 191.14C257.81 188.69 254.328 184.043 251.105 186.35C243.103 192.32 229.25 209.82 245.855 224.536C248.85 227.115 252.75 222.828 249.884 220.091C245.764 216.357 243.852 212.479 244.038 208.233C244.438 199.063 254.571 191.253 254.72 191.139V191.14ZM277.805 212.223C273.217 209.465 266.932 205.683 262.248 211.223C261.993 211.524 261.799 211.872 261.678 212.247C261.557 212.623 261.511 213.019 261.543 213.412C261.576 213.805 261.685 214.188 261.866 214.539C262.046 214.89 262.294 215.202 262.595 215.457C262.897 215.712 263.245 215.905 263.621 216.025C263.997 216.145 264.393 216.189 264.786 216.156C265.179 216.123 265.562 216.013 265.912 215.831C266.263 215.65 266.574 215.401 266.828 215.099C267.944 213.782 269.491 214.225 274.713 217.365C277.483 218.95 280.3 220.886 283.45 221.345C286.88 221.32 287.6 216.433 284.258 215.456C282.245 214.892 279.988 213.536 277.805 212.223ZM393.21 157.116C381.546 119.921 316.724 140.876 304.304 152.929C302.611 147.258 301.015 141.557 299.519 135.83C298.447 132.06 292.81 133.457 293.713 137.342C294.345 139.856 299.224 158.111 303.801 170.896C309.887 187.267 310.551 187.176 318.344 192.639C322.495 195.341 325.494 197.311 326.124 205.183C327.012 216.285 311.326 219.239 310.663 219.359C309.88 219.497 309.183 219.941 308.727 220.593C308.271 221.245 308.092 222.052 308.23 222.835C308.369 223.619 308.812 224.315 309.464 224.772C310.116 225.228 310.923 225.406 311.706 225.268C319.224 223.94 333.163 217.936 332.104 204.704C331.561 197.915 329.344 194.071 326.651 191.422C355.437 183.476 387.698 183.359 388.041 183.359C390.153 183.407 391.667 181.081 390.794 179.172C394.609 173.782 395.736 165.102 393.21 157.116ZM357.82 142.093C365.06 141.811 382.425 142.907 387.49 158.923C389.998 166.856 387.875 174.723 384.278 177.423C379.282 177.557 369.79 177.986 358.403 179.331C364.285 167.281 358.798 148.062 343.979 143.387C348.209 142.737 352.815 142.283 357.819 142.093H357.82ZM246.967 146.357C248.911 146.38 250.415 144.428 249.859 142.552C244.813 124.438 223.296 116.748 222.382 116.429C221.639 116.197 220.834 116.262 220.138 116.612C219.442 116.962 218.909 117.569 218.652 118.304C218.395 119.04 218.434 119.846 218.761 120.553C219.088 121.261 219.677 121.813 220.403 122.094C220.598 122.162 239.883 129.096 244.079 144.161C244.255 144.792 244.633 145.348 245.154 145.745C245.675 146.141 246.312 146.356 246.967 146.357Z" fill="black"/>
<path d="M314.265 121.191C305.427 127.944 304.713 138.805 304.687 139.264C304.583 140.977 305.969 142.434 307.684 142.428C309.254 142.428 310.574 141.202 310.677 139.615C310.682 139.529 311.305 131.004 317.908 125.959C320.988 123.485 317.473 118.866 314.265 121.191ZM344.32 326.036C273.815 357.733 158.024 330.614 156.863 330.336C156.089 330.151 155.273 330.281 154.595 330.697C153.917 331.114 153.432 331.783 153.247 332.557C153.062 333.331 153.192 334.147 153.608 334.825C154.024 335.503 154.693 335.988 155.467 336.173C196.457 346.193 293.618 357.012 346.78 331.508C350.29 329.828 348.033 324.499 344.32 326.036ZM190.198 77.1142C190.856 76.9852 269.504 68.8842 318.987 77.1322C319.74 77.1319 320.466 76.8483 321.02 76.3378C321.573 75.8272 321.915 75.1271 321.976 74.3765C322.037 73.6259 321.814 72.8796 321.351 72.286C320.887 71.6923 320.217 71.2948 319.474 71.1722C268.899 62.7982 190.346 71.0642 189.559 71.1492C185.676 71.6692 186.197 77.4092 190.198 77.1142ZM188.603 92.2322C189.425 92.1202 261.296 82.5292 305.123 94.2102C283.889 93.9432 246.866 94.3872 211.884 99.1752C211.132 99.2787 210.446 99.6639 209.967 100.253C209.487 100.842 209.249 101.591 209.3 102.349C209.351 103.107 209.688 103.817 210.242 104.337C210.797 104.856 211.528 105.146 212.287 105.147C264.265 98.0272 322.218 100.592 322.618 100.661C325.728 100.875 327.006 96.4742 324.168 95.0132C307.02 85.9412 278.818 81.7232 240.328 82.4782C211.873 83.0352 188.029 86.2552 187.791 86.2872C183.917 86.9272 184.621 92.6392 188.603 92.2322Z" fill="black"/>
<path d="M426.178 151.431C388.892 64.5732 311.383 -0.472822 226.955 2.07218C190.476 0.876179 126.365 22.2122 86.5872 63.3062C27.9032 116.535 -25.0168 259.977 17.2512 312.928C54.8432 384.638 268.97 386.899 361.862 360.982C465.027 330.107 473.994 260.247 426.177 151.432L426.178 151.431ZM227.033 369.578C38.9062 367.722 -36.2718 322.184 33.3702 153.846C47.9902 119.593 67.2572 90.6222 90.6382 67.7362C208.794 -42.8028 356.988 8.30719 420.708 153.9C451.898 223.015 456.194 273.435 433.846 308.038C395.216 363.768 306.573 368.283 227.034 369.578H227.033Z" stroke="black" stroke-width="3"/>
<path d="M370.627 214.287C370.533 213.748 370.282 213.249 369.904 212.853L369.883 212.828C369.743 212.687 369.589 212.559 369.424 212.448C368.733 211.944 367.686 211.692 366.929 211.961C366.371 212.089 365.868 212.389 365.489 212.819C365.469 212.846 365.442 212.872 365.419 212.899C365.059 213.229 364.719 213.603 364.381 213.974C364.057 214.284 363.738 214.601 363.451 214.936L363.421 214.965C363.397 214.989 363.378 215.017 363.354 215.042C351.76 226.813 335.95 238.203 332.484 240.656C287.808 244.853 180.407 230.878 147.418 211.506C146.781 209.636 145.805 207.141 144.515 204.085C144.629 203.501 144.565 202.895 144.331 202.348C144.097 201.8 143.705 201.335 143.204 201.012C142.438 199.242 141.661 197.476 140.871 195.716C143.056 196.265 145.162 196.964 147.154 197.841C147.534 198.01 147.945 198.097 148.361 198.097C151.536 198.124 152.531 193.639 149.571 192.35C145.421 190.522 140.892 189.307 136.111 188.738L136.105 188.736C131.854 188.235 127.395 188.232 122.855 188.733H122.848C113.984 189.698 107.718 192.209 107.455 192.315C106.719 192.614 106.131 193.193 105.821 193.925C105.511 194.657 105.505 195.482 105.803 196.219C106.423 197.769 108.21 198.491 109.707 197.877C109.751 197.859 113.291 196.456 118.653 195.43C110.015 220.484 108.568 242.226 114.369 260.111L114.37 260.115C118.896 274.018 127.86 285.859 141.012 295.31C162.362 310.913 196.203 319.497 226.503 322.557C265.567 327.867 336.063 324.587 358.014 308.322C364.876 303.876 369.109 298.555 370.596 292.51C372.842 283.362 374.109 272.839 374.362 261.231V261.227C375.229 242.235 370.751 213.239 370.626 214.287H370.627ZM230.355 316.924C231.194 312.284 232.105 307.378 232.468 304.079C232.472 304.044 232.478 304.009 232.481 303.973C232.484 303.954 232.481 303.937 232.484 303.918L232.493 303.881V303.88C232.67 302.447 232.928 301.315 233.46 300.145C234.386 298.191 235.897 296.873 237.775 296.075C243.093 293.906 251.573 295.172 257.588 295.971C260.696 296.448 262.947 297.016 264.591 297.745C264.749 297.819 264.917 297.891 265.063 297.967L265.07 297.971C266.388 298.663 267.23 299.461 267.778 300.307C268.355 301.253 268.636 302.376 268.753 303.717C268.805 304.748 268.742 305.747 268.824 306.631V306.635C268.777 309.658 268.206 314.412 267.693 318.887C255.223 318.833 242.762 318.178 230.355 316.924ZM146.895 292.096C148.426 289.398 150.705 285.226 152.425 280.786C153.92 278.159 155.321 276.322 156.879 275.106C161.266 271.796 166.13 274.078 172.134 277C174.178 278.128 176.553 279.227 178.483 279.929C180.291 280.667 182.233 281.383 183.515 282.209C185.226 283.337 186.364 284.882 186.638 287.61C186.652 287.744 186.658 287.88 186.666 288.017C186.774 290.191 186.385 293.102 185.419 297.141L185.415 297.157L185.414 297.169C185.411 297.207 185.398 297.242 185.388 297.279C185.37 297.347 185.353 297.418 185.338 297.489C184.602 300.488 183.543 303.998 182.192 307.937C168.16 303.721 156.328 298.414 146.895 292.096ZM253.854 243.674C252.224 261.036 244.794 263.456 226.254 259.719C218.929 258.017 210.069 255.604 213.468 246.079C214.508 243.825 215.522 241.166 216.55 238.004C228.917 240.315 241.359 242.206 253.854 243.674ZM295.884 251.221C296.047 257.601 295.133 261.551 293.012 263.603C289.685 266.826 281.882 266.38 272.005 265.821C254.675 264.896 258.419 258.803 259.625 246.145C259.66 245.896 259.689 245.625 259.715 245.371V245.37C259.752 245.038 259.785 244.695 259.818 244.344C271.012 245.534 283.064 246.457 295.641 246.898C295.767 248.336 295.848 249.778 295.884 251.221ZM273.799 318.304C274.335 313.612 274.759 309.934 274.823 306.72C275.223 298.607 276.683 297.328 296.666 296.656C302.53 296.713 308.766 296.303 311.303 299.542C311.663 300.119 311.852 300.776 311.967 301.509C312.051 302.197 312.054 302.883 312.159 303.513C312.383 306.412 311.974 311.532 311.618 316.305C300.288 317.85 287.538 318.732 273.733 318.875L273.799 318.303V318.304ZM318.147 303.124C318.643 294.349 320.247 293.901 334.907 289.843C338.677 288.805 346.713 286.087 349.437 289.909L349.441 289.913L349.444 289.917C351.442 292.347 352.291 298.651 353.122 304.293C344.911 309.137 332.76 312.897 317.702 315.39C318.075 310.361 318.365 306.355 318.147 303.125V303.124ZM364.063 222.748C367.212 235.215 365.593 249.018 351.493 254.32H351.491L351.488 254.321C343.168 257.503 338.483 255.8 335.925 246.949C335.825 246.562 335.722 246.176 335.615 245.791C338.204 243.977 352.155 234.059 364.063 222.748ZM311.578 247.184C317.533 247.184 323.575 247.054 329.664 246.789C333.19 258.682 330.047 263.197 317.955 265.006C303.469 266.913 304.477 263.868 301.873 250.806C301.837 249.559 301.77 248.314 301.671 247.07C304.945 247.142 308.247 247.184 311.578 247.184ZM210.613 236.859C210.494 237.216 210.373 237.572 210.249 237.927C209.386 239.834 208.514 241.867 207.865 243.903C205.655 248.584 203.529 250.94 200.489 251.688C197.274 252.257 192.44 251.343 184.235 248.792C180.627 247.552 177.97 246.638 175.33 244.524C171.14 241.366 172.605 235.394 174.726 230.086L174.729 230.074C174.961 229.49 175.169 228.942 175.353 228.442C186.059 231.487 198.655 234.487 210.613 236.859ZM161.001 223.987C163.679 224.906 166.556 225.829 169.581 226.747C169.435 227.143 169.266 227.562 169.098 228.006C165.668 236.571 163.004 238.373 162.476 238.369C156.872 238.102 139.148 229.347 137.163 226.428C136.752 224.955 138.061 219.647 141.192 211.913C142.764 215.909 141.631 217.006 161.001 223.987ZM120.549 259.611C121.915 257.684 123.307 256.343 124.749 255.545C127.306 254.172 130.219 254.645 132.952 255.943C137.542 258.128 142.291 262.403 146.777 265.202C150.249 267.366 148.769 273.574 146.921 278.396C145.455 282.239 143.464 285.956 142.005 288.551C131.697 280.521 124.494 270.802 120.549 259.611ZM187.975 309.576C189.37 305.483 190.428 301.966 191.21 298.73C191.224 298.676 191.235 298.622 191.248 298.567C192.284 294.437 193.822 290.656 197.556 289.042C202.946 287.058 210.278 289.537 216.559 290.955L216.574 290.959C219.33 291.714 221.075 292.175 223.261 293.319C224.41 293.919 225.427 294.77 226.048 295.911C227.145 298.172 226.748 300.773 226.533 303.2L226.523 303.264C226.176 306.487 225.207 311.671 224.377 316.271C210.568 314.618 199.502 312.667 187.975 309.576ZM358.605 300.4C357.745 294.718 356.858 290.129 354.575 286.82C353.656 283.477 355.699 281.753 357.795 278.87C359.823 276.27 362.347 273.034 364.766 268.198C366.399 264.937 367.626 263.578 368.301 263.02C367.967 273.423 366.788 282.863 364.771 291.08C363.948 294.424 361.877 297.545 358.606 300.4H358.605ZM115.163 167.213C115.138 167.606 115.191 168.001 115.318 168.373C115.446 168.746 115.645 169.09 115.906 169.386C116.166 169.682 116.482 169.923 116.836 170.097C117.19 170.27 117.574 170.372 117.967 170.397C118.577 170.437 179.452 174.502 218.247 193.626C220.363 194.781 223.11 192.664 222.494 190.31C233.752 186.067 238.717 170.714 234.763 159.877C224.7 137.801 190.529 124.477 155.943 120.946C115.747 116.533 102.692 147.12 115.469 166.076C115.292 166.431 115.188 166.818 115.163 167.213ZM229.131 161.947C232.807 171.944 225.793 189.529 212.074 184.287C199.626 179.172 185.93 175.353 173.404 172.557C193.436 167.275 190.088 142.591 180.42 131.288C200.879 136.798 222.285 146.975 229.13 161.948L229.131 161.947Z" stroke="black" stroke-width="3"/>
<path d="M254.72 191.14C257.81 188.69 254.328 184.043 251.105 186.35C243.103 192.32 229.25 209.82 245.855 224.536C248.85 227.115 252.75 222.828 249.884 220.091C245.764 216.357 243.852 212.479 244.038 208.233C244.438 199.063 254.571 191.253 254.72 191.139V191.14ZM277.805 212.223C273.217 209.465 266.932 205.683 262.248 211.223C261.993 211.524 261.799 211.872 261.678 212.247C261.557 212.623 261.511 213.019 261.543 213.412C261.576 213.805 261.685 214.188 261.866 214.539C262.046 214.89 262.294 215.202 262.595 215.457C262.897 215.712 263.245 215.905 263.621 216.025C263.997 216.145 264.393 216.189 264.786 216.156C265.179 216.123 265.562 216.013 265.912 215.831C266.263 215.65 266.574 215.401 266.828 215.099C267.944 213.782 269.491 214.225 274.713 217.365C277.483 218.95 280.3 220.886 283.45 221.345C286.88 221.32 287.6 216.433 284.258 215.456C282.245 214.892 279.988 213.536 277.805 212.223ZM393.21 157.116C381.546 119.921 316.724 140.876 304.304 152.929C302.611 147.258 301.015 141.557 299.519 135.83C298.447 132.06 292.81 133.457 293.713 137.342C294.345 139.856 299.224 158.111 303.801 170.896C309.887 187.267 310.551 187.176 318.344 192.639C322.495 195.341 325.494 197.311 326.124 205.183C327.012 216.285 311.326 219.239 310.663 219.359C309.88 219.497 309.183 219.941 308.727 220.593C308.271 221.245 308.092 222.052 308.23 222.835C308.369 223.619 308.812 224.315 309.464 224.772C310.116 225.228 310.923 225.406 311.706 225.268C319.224 223.94 333.163 217.936 332.104 204.704C331.561 197.915 329.344 194.071 326.651 191.422C355.437 183.476 387.698 183.359 388.041 183.359C390.153 183.407 391.667 181.081 390.794 179.172C394.609 173.782 395.736 165.102 393.21 157.116ZM357.82 142.093C365.06 141.811 382.425 142.907 387.49 158.923C389.998 166.856 387.875 174.723 384.278 177.423C379.282 177.557 369.79 177.986 358.403 179.331C364.285 167.281 358.798 148.062 343.979 143.387C348.209 142.737 352.815 142.283 357.819 142.093H357.82ZM246.967 146.357C248.911 146.38 250.415 144.428 249.859 142.552C244.813 124.438 223.296 116.748 222.382 116.429C221.639 116.197 220.834 116.262 220.138 116.612C219.442 116.962 218.909 117.569 218.652 118.304C218.395 119.04 218.434 119.846 218.761 120.553C219.088 121.261 219.677 121.813 220.403 122.094C220.598 122.162 239.883 129.096 244.079 144.161C244.255 144.792 244.633 145.348 245.154 145.745C245.675 146.141 246.312 146.356 246.967 146.357Z" stroke="black" stroke-width="3"/>
<path d="M314.265 121.191C305.427 127.944 304.713 138.805 304.687 139.264C304.583 140.977 305.969 142.434 307.684 142.428C309.254 142.428 310.574 141.202 310.677 139.615C310.682 139.529 311.305 131.004 317.908 125.959C320.988 123.485 317.473 118.866 314.265 121.191ZM344.32 326.036C273.815 357.733 158.024 330.614 156.863 330.336C156.089 330.151 155.273 330.281 154.595 330.697C153.917 331.114 153.432 331.783 153.247 332.557C153.062 333.331 153.192 334.147 153.608 334.825C154.024 335.503 154.693 335.988 155.467 336.173C196.457 346.193 293.618 357.012 346.78 331.508C350.29 329.828 348.033 324.499 344.32 326.036ZM190.198 77.1142C190.856 76.9852 269.504 68.8842 318.987 77.1322C319.74 77.1319 320.466 76.8483 321.02 76.3378C321.573 75.8272 321.915 75.1271 321.976 74.3765C322.037 73.6259 321.814 72.8796 321.351 72.286C320.887 71.6923 320.217 71.2948 319.474 71.1722C268.899 62.7982 190.346 71.0642 189.559 71.1492C185.676 71.6692 186.197 77.4092 190.198 77.1142ZM188.603 92.2322C189.425 92.1202 261.296 82.5292 305.123 94.2102C283.889 93.9432 246.866 94.3872 211.884 99.1752C211.132 99.2787 210.446 99.6639 209.967 100.253C209.487 100.842 209.249 101.591 209.3 102.349C209.351 103.107 209.688 103.817 210.242 104.337C210.797 104.856 211.528 105.146 212.287 105.147C264.265 98.0272 322.218 100.592 322.618 100.661C325.728 100.875 327.006 96.4742 324.168 95.0132C307.02 85.9412 278.818 81.7232 240.328 82.4782C211.873 83.0352 188.029 86.2552 187.791 86.2872C183.917 86.9272 184.621 92.6392 188.603 92.2322Z" stroke="black" stroke-width="3"/>
</svg>
