<svg width="512" height="338" viewBox="0 0 512 338" fill="none" xmlns="http://www.w3.org/2000/svg">
<path d="M511.725 233.424C510.45 204.089 505.348 171.565 497.695 140.954C490.043 111.619 480.477 84.1976 468.998 63.1529C424.358 -15.2864 375.891 -3.1698 317.859 12.1354C299.365 16.5995 279.596 21.7012 259.189 23.6144H252.812C232.405 21.7012 212.635 16.5995 194.142 12.1354C136.109 -2.53209 87.6426 -15.2864 43.0023 63.7906C31.5234 84.8353 21.3199 112.257 14.305 141.592C6.65238 172.203 1.55063 204.726 0.275196 234.061C-1.00024 266.585 2.18835 290.181 9.20325 306.761C16.2181 322.066 26.4216 331.632 39.8137 335.459C51.9304 338.647 65.9602 337.372 80.6277 330.995C105.499 320.791 134.196 299.109 162.256 272.962C182.025 253.831 219.013 244.265 256 244.265C292.988 244.265 329.975 253.831 349.745 272.962C377.804 299.109 406.502 320.791 431.373 330.995C446.04 336.734 460.07 338.647 472.187 335.459C484.941 331.632 495.782 322.704 502.797 306.124C509.812 290.181 513.001 266.585 511.725 233.424ZM481.115 297.195C477.288 306.124 472.187 311.225 465.809 313.138C458.795 315.052 449.866 313.776 439.663 309.95C417.343 301.022 391.196 281.253 365.688 257.019C341.454 232.786 298.727 220.669 256 220.669C213.273 220.669 170.546 232.786 145.675 255.744C119.528 279.977 93.382 300.384 71.6996 308.674C61.4961 312.501 52.5681 314.414 45.5532 311.863C39.176 309.95 34.0743 304.848 30.2479 295.92C25.1462 283.803 22.5953 264.034 23.8708 234.699C25.1462 207.277 29.6102 176.029 37.2628 146.694C44.2777 119.272 53.2058 93.7633 64.047 74.6318C99.1215 11.4977 139.935 21.7012 188.402 34.4556C208.171 39.5573 228.578 44.6591 250.898 46.5722H260.464C283.422 44.6591 303.829 39.5573 323.598 34.4556C372.065 22.3389 412.879 11.4977 447.953 74.6318C458.795 93.7633 467.723 118.634 474.737 146.694C481.752 176.029 486.854 206.639 488.13 234.699C489.405 264.034 486.854 283.803 481.115 297.195Z" fill="black"/>
<path d="M197.33 109.069C190.953 103.329 183.3 98.8651 174.372 98.2274C173.735 89.937 169.908 81.6467 164.169 75.9072L163.531 75.2695C156.516 68.2546 147.588 64.4283 137.385 64.4283C127.181 64.4283 117.615 68.8923 111.238 75.2695C105.499 81.009 101.035 89.2993 100.397 98.2274C91.4689 98.8651 83.8163 102.691 77.4391 108.431L76.8014 109.069C69.7865 116.083 65.9602 125.012 65.9602 135.215C65.9602 145.419 70.4242 154.984 76.8014 161.361C83.1786 167.739 90.8312 171.565 100.397 172.203C101.035 181.131 104.861 189.421 111.238 195.161C118.253 202.175 127.181 206.002 137.385 206.002C147.588 206.002 157.154 201.538 163.531 195.161C169.27 188.783 173.735 181.131 174.372 172.203C183.3 171.565 191.591 167.739 197.33 161.361C204.345 154.347 208.171 145.419 208.171 135.215C208.171 125.012 203.707 115.446 197.33 109.069ZM181.387 144.781C178.836 147.332 175.648 148.607 171.821 148.607H162.893C156.516 148.607 150.777 153.709 150.777 160.724V169.014C150.777 172.84 149.501 176.029 146.95 178.58C144.399 181.131 141.211 182.406 137.385 182.406C133.558 182.406 130.37 181.131 127.819 178.58C125.268 176.029 123.993 172.84 123.993 169.014V160.086C123.993 153.709 118.891 147.969 111.876 147.969H102.948C99.1215 147.969 95.9329 146.694 93.3821 144.143C91.4689 142.23 89.5557 139.041 89.5557 135.215C89.5557 131.389 90.8312 128.2 93.3821 125.649L94.0198 125.012C96.5706 123.098 99.7592 121.823 102.948 121.823H111.876C118.253 121.823 123.993 116.721 123.993 109.706V100.778C123.993 96.9519 125.268 93.7634 127.819 91.2125C130.37 88.6616 133.558 87.3862 137.385 87.3862C141.211 87.3862 144.399 88.6616 146.95 91.2125L147.588 91.8502C149.501 94.4011 150.777 97.5897 150.777 100.778V109.706C150.777 116.083 155.878 121.823 162.893 121.823H171.821C175.648 121.823 178.836 123.098 181.387 125.649C183.938 128.2 185.213 131.389 185.213 135.215C185.213 139.041 183.938 142.23 181.387 144.781Z" fill="black"/>
<path d="M366.963 112.257C379.29 112.257 389.283 102.264 389.283 89.937C389.283 77.61 379.29 67.6169 366.963 67.6169C354.636 67.6169 344.643 77.61 344.643 89.937C344.643 102.264 354.636 112.257 366.963 112.257Z" fill="black"/>
<path d="M366.963 202.813C379.29 202.813 389.283 192.82 389.283 180.493C389.283 168.166 379.29 158.173 366.963 158.173C354.636 158.173 344.643 168.166 344.643 180.493C344.643 192.82 354.636 202.813 366.963 202.813Z" fill="black"/>
<path d="M321.685 157.535C334.012 157.535 344.005 147.542 344.005 135.215C344.005 122.888 334.012 112.895 321.685 112.895C309.358 112.895 299.365 122.888 299.365 135.215C299.365 147.542 309.358 157.535 321.685 157.535Z" fill="black"/>
<path d="M412.241 157.535C424.568 157.535 434.561 147.542 434.561 135.215C434.561 122.888 424.568 112.895 412.241 112.895C399.914 112.895 389.921 122.888 389.921 135.215C389.921 147.542 399.914 157.535 412.241 157.535Z" fill="black"/>
</svg>
