<svg width="416" height="453" viewBox="0 0 416 453" fill="none" xmlns="http://www.w3.org/2000/svg">
<path d="M208 452.282C201.653 452.281 195.411 450.658 189.867 447.568L117.973 407.61C82.2288 387.74 52.4441 358.678 31.7024 323.432C10.9606 288.186 0.0155461 248.037 2.31201e-07 207.141V96.293C-0.00102664 87.0689 3.41855 78.1722 9.59736 71.3235C15.7762 64.4748 24.2752 60.1607 33.4507 59.2156C62.0545 56.1806 90.206 49.8157 117.333 40.2503C142.199 31.4621 166.051 20.0333 188.48 6.15961H188.501C194.373 2.57452 201.12 0.677734 208 0.677734C214.88 0.677734 221.627 2.57452 227.499 6.15961C249.936 20.0321 273.795 31.4608 298.667 40.2503C325.794 49.8157 353.946 56.1806 382.549 59.2156C391.725 60.1607 400.224 64.4748 406.403 71.3235C412.581 78.1722 416.001 87.0689 416 96.293V207.141C415.984 248.037 405.039 288.186 384.298 323.432C363.556 358.678 333.771 387.74 298.027 407.61L226.133 447.568C220.589 450.658 214.347 452.281 208 452.282ZM205.333 33.4023C180.949 48.462 155.024 60.8703 128 70.4156C98.5234 80.8218 67.9291 87.7383 36.8427 91.0236C35.5222 91.1358 34.2919 91.7395 33.3952 92.7153C32.4985 93.691 32.0006 94.9677 32 96.293V207.141C32.0114 242.331 41.4276 276.878 59.2738 307.207C77.12 337.536 102.748 362.544 133.504 379.642L205.397 419.578C206.189 420.033 207.087 420.272 208 420.272C208.913 420.272 209.811 420.033 210.603 419.578L282.496 379.642C313.252 362.544 338.88 337.536 356.726 307.207C374.572 276.878 383.989 242.331 384 207.141V96.293C383.999 94.9677 383.502 93.691 382.605 92.7153C381.708 91.7395 380.478 91.1358 379.157 91.0236C348.071 87.7383 317.477 80.8218 288 70.4156C260.976 60.8703 235.051 48.462 210.667 33.4023C209.862 32.9168 208.94 32.6602 208 32.6602C207.06 32.6602 206.138 32.9168 205.333 33.4023Z" fill="black"/>
<path d="M261.333 338H154.667C141.94 337.988 129.737 332.928 120.738 323.928C111.739 314.929 106.678 302.727 106.667 290V226C106.678 213.273 111.739 201.07 120.738 192.071C129.737 183.072 141.94 178.011 154.667 178H261.333C274.06 178.011 286.263 183.072 295.262 192.071C304.261 201.07 309.322 213.273 309.333 226V290C309.322 302.727 304.261 314.929 295.262 323.928C286.263 332.928 274.06 337.988 261.333 338ZM154.667 210C150.423 210 146.354 211.685 143.353 214.686C140.352 217.686 138.667 221.756 138.667 226V290C138.667 294.243 140.352 298.313 143.353 301.313C146.354 304.314 150.423 306 154.667 306H261.333C265.577 306 269.646 304.314 272.647 301.313C275.648 298.313 277.333 294.243 277.333 290V226C277.333 221.756 275.648 217.686 272.647 214.686C269.646 211.685 265.577 210 261.333 210H154.667Z" fill="black"/>
<path d="M250.667 210H165.333C161.09 210 157.02 208.314 154.02 205.313C151.019 202.313 149.333 198.243 149.333 194V151.333C149.333 135.774 155.514 120.851 166.516 109.849C177.519 98.8472 192.441 92.6663 208 92.6663C223.559 92.6663 238.481 98.8472 249.484 109.849C260.486 120.851 266.667 135.774 266.667 151.333V194C266.667 198.243 264.981 202.313 261.98 205.313C258.98 208.314 254.91 210 250.667 210ZM181.333 178H234.667V151.333C234.667 144.261 231.857 137.478 226.856 132.477C221.855 127.476 215.072 124.666 208 124.666C200.928 124.666 194.145 127.476 189.144 132.477C184.143 137.478 181.333 144.261 181.333 151.333V178Z" fill="black"/>
</svg>
