<svg width="512" height="512" viewBox="0 0 512 512" fill="none" xmlns="http://www.w3.org/2000/svg">
<path fill-rule="evenodd" clip-rule="evenodd" d="M172.466 245.952C170.966 245.952 169.466 245.652 168.267 244.753L133.473 224.657C130.774 223.157 129.274 220.157 129.274 217.158V151.771C129.274 140.373 146.671 140.373 146.671 151.771V212.059L176.965 229.756C184.463 234.255 181.464 245.952 172.466 245.952ZM387.524 512H317.937C313.138 512 309.239 508.101 309.239 503.302V449.613H290.043C285.244 449.613 281.345 445.713 281.345 440.914C281.345 358.13 256.749 346.133 229.155 320.338C184.763 359.63 120.576 366.229 68.986 336.535C3.29884 298.742 -19.7966 214.459 18.5959 148.171C62.9872 71.3865 168.267 55.4896 233.354 117.877C263.648 83.3841 306.54 63.588 352.731 63.588C440.613 63.588 512 134.974 512 222.857C512 289.444 489.204 309.24 467.608 328.136C445.113 347.633 424.117 366.229 424.117 440.914C424.117 445.713 420.217 449.613 415.418 449.613H396.222V503.302C396.222 508.101 392.323 512 387.524 512ZM344.032 432.216V307.74L312.538 279.546C303.84 272.047 315.538 259.15 324.236 266.648L352.731 292.143L381.525 266.648C389.923 259.15 401.621 272.047 392.923 279.546L361.429 307.74V432.216H407.02C408.82 356.631 433.715 334.735 456.21 315.239C476.606 297.242 494.603 281.645 494.603 222.857C494.603 144.572 431.015 80.9846 352.731 80.9846C311.039 80.9846 272.046 98.9811 245.052 130.775C287.343 182.965 285.844 257.65 241.452 308.04C268.447 332.935 296.642 349.732 298.741 432.216H344.032ZM326.636 494.604H378.826V449.613H326.636V494.604ZM468.208 231.555C463.409 231.555 459.51 227.656 459.51 222.857C459.51 164.068 411.519 116.078 352.731 116.078C341.333 116.078 341.333 98.6811 352.731 98.6811C421.117 98.6811 476.906 154.47 476.906 222.857C476.906 227.656 473.007 231.555 468.208 231.555ZM352.731 44.3918C347.932 44.3918 344.032 40.4925 344.032 35.6934V8.69872C344.032 -2.69905 361.429 -2.69905 361.429 8.69872V35.6934C361.429 40.4925 357.53 44.3918 352.731 44.3918ZM242.352 73.786C239.353 73.786 236.353 72.2863 234.854 69.5868L221.356 46.1914C215.657 36.2933 230.654 27.595 236.353 37.4931L249.851 60.8885C253.15 66.5874 248.951 73.786 242.352 73.786ZM463.409 73.786C456.81 73.786 452.311 66.5874 455.611 60.8885L469.108 37.4931C474.807 27.595 490.104 36.2933 484.105 46.1914L470.908 69.5868C469.108 72.2863 466.408 73.786 463.409 73.786ZM129.274 97.1814C113.677 98.0813 98.6802 102.28 85.4828 108.879C90.5818 117.877 99.58 128.675 89.9819 134.074C80.0839 139.773 75.2848 125.976 70.1858 117.577C57.5882 125.976 46.7903 137.074 38.092 149.671C47.0903 154.77 60.2877 159.569 54.8888 169.167C52.4892 173.367 47.0903 174.866 42.8911 172.467L29.3937 164.668C23.095 178.166 18.8958 192.863 17.696 208.46C28.194 208.46 41.9913 206.06 41.9913 217.158C41.9913 228.256 28.194 225.856 17.696 225.856C18.8958 241.453 23.095 256.45 29.3937 269.648C38.392 264.549 49.1899 255.55 54.8888 265.149C60.2877 274.747 47.0903 279.546 38.092 284.645C46.7903 297.242 57.5882 308.34 70.1858 316.739C75.5847 308.04 80.3838 294.543 89.9819 300.242C99.58 305.941 90.5818 316.739 85.4828 325.437C98.6802 332.036 113.677 336.235 129.274 337.435C129.274 326.937 126.575 313.139 137.973 313.139C149.07 313.139 146.671 326.937 146.671 337.435C162.268 336.235 176.965 332.036 190.462 325.437C185.363 316.739 176.065 305.941 185.963 300.242C195.561 294.543 200.36 308.04 205.459 316.739C218.057 308.34 228.855 297.242 237.553 284.645C228.555 279.546 215.357 274.747 221.056 265.149C226.455 255.55 237.253 264.549 246.251 269.648C252.85 256.45 256.749 241.453 257.949 225.856C247.751 225.856 233.654 228.256 233.654 217.158C233.654 206.06 247.751 208.46 257.949 208.46C256.749 192.863 252.85 178.166 246.251 164.668C241.452 167.368 232.454 173.667 228.555 173.667C219.557 173.667 216.257 161.669 224.056 157.47L237.553 149.671C228.855 137.074 218.057 125.976 205.459 117.577C200.36 125.976 195.561 139.773 185.963 134.074C176.065 128.675 185.363 117.877 190.462 108.879C176.965 102.28 162.268 98.0813 146.671 97.1814C146.671 107.379 149.07 121.177 137.973 121.177C126.575 121.177 129.274 107.379 129.274 97.1814Z" fill="black"/>
</svg>
