<svg width="808" height="1082" viewBox="0 0 808 1082" fill="none" xmlns="http://www.w3.org/2000/svg">
<path d="M239.969 0.0253906C176.356 0.105397 115.371 25.411 70.3901 70.3921C25.409 115.373 0.103444 176.358 0.0234375 239.971C0.0714368 303.604 25.3629 364.62 70.3475 409.627C115.332 454.634 176.335 479.957 239.969 480.037C303.623 479.989 364.657 454.681 409.668 409.67C454.679 364.659 479.987 303.625 480.035 239.971C479.955 176.326 454.624 115.314 409.604 70.3281C364.584 25.3417 303.613 0.0573786 239.969 0.0253906ZM239.969 32.0141C267.303 31.9743 294.376 37.3268 319.639 47.765C344.901 58.2033 367.857 73.5223 387.19 92.8448C406.524 112.167 421.856 135.114 432.309 160.37C442.762 185.627 448.13 212.697 448.107 240.031C448.115 267.364 442.736 294.43 432.278 319.682C421.82 344.935 406.488 367.879 387.158 387.203C367.829 406.527 344.88 421.853 319.624 432.303C294.369 442.754 267.301 448.124 239.969 448.109C212.635 448.132 185.564 442.764 160.308 432.311C135.051 421.858 112.105 406.526 92.7823 387.192C73.4598 367.859 58.1409 344.903 47.7026 319.641C37.2643 294.378 31.9119 267.305 31.9516 239.971C31.9198 212.644 37.2786 185.58 47.7212 160.328C58.1637 135.076 73.4849 112.132 92.8074 92.8094C112.13 73.4869 135.074 58.1657 160.326 47.7231C185.578 37.2805 212.642 31.9218 239.969 31.9536V32.0141Z" fill="black"/>
<path d="M314.8 324.8C315 326.8 314.8 328.7 314.2 330.5C313.8 331.7 313.2 332.7 312.4 333.5C311.8 334.3 311 335.1 310 335.9C308.2 337.1 306 338.2 303.4 339.2C301.8 339.6 300.2 339.9 298.6 340.1C297.2 340.5 295.7 340.5 294.1 340.1C290.9 339.9 288.1 338.7 285.7 336.5C282.3 333.7 279.5 330.6 277.3 327.2C276.3 325.6 275.2 323.8 274 321.8C272.8 319.8 271.7 317.7 270.7 315.5L237.4 252.2C235.8 252.2 234.2 252.3 232.6 252.5C231 252.5 229.4 252.6 227.8 252.8C223.6 253.2 219.6 253.3 215.8 253.1C212.2 252.9 208.4 252.9 204.4 253.1H198.7V307.4C198.7 309 198.6 310.5 198.4 311.9C198.4 313.3 198.4 314.8 198.4 316.4C198.4 317.4 198.3 318.7 198.1 320.3C198.1 321.9 198 323.4 197.8 324.8C197.4 327 196.5 329.3 195.1 331.7C193.7 333.9 191.8 335.8 189.4 337.4C185.2 340 180.1 340.7 174.1 339.5C171.5 338.9 169 337.9 166.6 336.5C165.8 335.9 165.1 335.2 164.5 334.4C163.9 333.4 163.4 332.4 163 331.4C162.6 330.4 162.2 329.4 161.8 328.4C161.6 327.2 161.3 326.1 160.9 325.1C160.3 323.1 160 321.2 160 319.4V149C160 147.8 160 146.6 160 145.4C160.2 144 160.4 142.8 160.6 141.8C160.8 139.6 161.5 137.4 162.7 135.2C163.3 132.8 164.3 131.1 165.7 130.1C166.9 128.9 168.7 127.9 171.1 127.1C173.7 126.1 177.4 125.7 182.2 125.9C191.2 126.1 200.1 126.2 208.9 126.2C217.7 126.2 226.5 126.4 235.3 126.8C241.1 127.2 247.2 127.9 253.6 128.9C260.2 129.7 266.3 131.2 271.9 133.4C275.5 134.8 278.8 136.2 281.8 137.6C285.6 139.8 288.6 141.9 290.8 143.9C297.8 150.3 303.1 158 306.7 167C310.3 176 312.1 185.1 312.1 194.3C312.1 205.1 309.5 215 304.3 224C299.3 233 291.2 239.7 280 244.1C279.6 244.5 279 244.8 278.2 245C277.6 245 277.1 245.1 276.7 245.3L304.3 300.8L307 305.6C307.4 306.4 307.9 307.3 308.5 308.3C309.1 309.3 309.6 310.3 310 311.3C310.6 312.3 311.1 313.4 311.5 314.6C312.1 315.8 312.7 316.9 313.3 317.9C313.9 320.7 314.4 323 314.8 324.8ZM239.8 218C243.4 218 246.8 217.4 250 216.2C253.4 214.8 256.4 213 259 210.8C261.8 208.6 264.1 206.1 265.9 203.3C267.7 200.3 268.7 197.1 268.9 193.7C269.7 183.7 267.1 176.3 261.1 171.5C255.1 166.5 247.2 163.8 237.4 163.4C231.6 163 225.2 162.8 218.2 162.8C211.4 162.8 204.9 162.8 198.7 162.8C198.9 171 198.9 179.4 198.7 188C198.7 196.4 198.7 206.4 198.7 218H239.8Z" fill="black"/>
<path d="M661.738 559.246L661.746 559.221L699.56 416.718C702.393 406.042 696.036 395.09 685.359 392.256C674.683 389.423 663.731 395.78 660.898 406.456L635.51 502.132L483.731 258.32C478.208 248.754 465.977 245.477 456.411 251C446.845 256.523 443.567 268.754 449.09 278.32L600.869 522.131L505.319 496.281C494.656 493.397 483.675 499.703 480.79 510.365C477.905 521.03 484.214 532.011 494.874 534.895L637.193 573.398L637.218 573.404C647.905 576.279 658.895 569.905 661.738 559.246Z" fill="black"/>
<path d="M551.828 1065.38C615.441 1065.3 676.426 1039.99 721.407 995.012C766.388 950.031 791.693 889.047 791.773 825.434C791.725 761.8 766.434 700.784 721.449 655.777C676.465 610.77 615.462 585.448 551.828 585.368C488.174 585.416 427.14 610.724 382.129 655.734C337.118 700.745 311.81 761.779 311.762 825.434C311.842 889.078 337.173 950.09 382.193 995.076C427.213 1040.06 488.184 1065.35 551.828 1065.38ZM551.828 1033.39C524.494 1033.43 497.421 1028.08 472.158 1017.64C446.896 1007.2 423.94 991.882 404.607 972.559C385.273 953.237 369.941 930.291 359.488 905.034C349.035 879.778 343.666 852.707 343.69 825.373C343.682 798.041 349.061 770.975 359.519 745.722C369.977 720.469 385.309 697.525 404.638 678.201C423.968 658.877 446.917 643.552 472.172 633.101C497.428 622.651 524.496 617.28 551.828 617.296C579.162 617.272 606.233 622.64 631.489 633.093C656.746 643.546 679.692 658.878 699.015 678.212C718.337 697.546 733.656 720.501 744.094 745.764C754.533 771.026 759.885 798.1 759.845 825.434C759.877 852.76 754.518 879.824 744.076 905.076C733.633 930.328 718.312 953.272 698.989 972.595C679.667 991.917 656.723 1007.24 631.471 1017.68C606.218 1028.12 579.154 1033.48 551.828 1033.45L551.828 1033.39ZM552.01 953.328C556.239 953.248 560.265 951.5 563.21 948.464C566.155 945.428 567.781 941.351 567.732 937.122L567.732 923.637C593.553 918.799 615.685 902.17 615.685 873.326C615.685 853.371 606.614 837.165 594.52 827.732C582.426 818.298 568.76 814.186 556.787 810.195C544.753 806.144 534.413 802.334 528.547 797.738C522.621 793.203 519.84 789.273 519.84 777.3C519.84 750.693 583.696 750.693 583.696 777.3C583.562 779.483 583.876 781.67 584.619 783.727C585.362 785.784 586.518 787.668 588.017 789.261C589.515 790.855 591.324 792.124 593.331 792.992C595.339 793.86 597.503 794.308 599.69 794.308C601.878 794.308 604.042 793.86 606.049 792.992C608.057 792.124 609.866 790.855 611.364 789.261C612.862 787.668 614.019 785.784 614.762 783.727C615.505 781.67 615.819 779.483 615.685 777.3C615.685 748.516 593.553 731.826 567.732 726.988L567.732 713.564C567.866 711.381 567.552 709.193 566.809 707.136C566.066 705.079 564.91 703.196 563.411 701.602C561.913 700.009 560.104 698.739 558.097 697.871C556.089 697.003 553.925 696.556 551.738 696.556C549.55 696.556 547.386 697.003 545.379 697.871C543.371 698.739 541.562 700.009 540.064 701.602C538.565 703.196 537.409 705.079 536.666 707.136C535.923 709.193 535.609 711.381 535.743 713.564L535.743 727.049C509.923 731.886 487.79 748.576 487.79 777.36C487.79 797.376 496.861 813.582 508.955 822.954C521.049 832.388 534.715 836.621 546.688 840.612C558.722 844.603 569.062 848.412 574.988 852.948C580.854 857.543 583.696 861.413 583.696 873.386C583.696 900.054 519.84 900.054 519.84 873.386C519.84 869.136 518.151 865.061 515.146 862.055C512.141 859.05 508.065 857.362 503.815 857.362C499.565 857.362 495.489 859.05 492.484 862.055C489.479 865.061 487.79 869.136 487.79 873.386C487.79 902.17 509.922 918.799 535.743 923.698L535.743 937.182C535.719 939.328 536.125 941.456 536.938 943.441C537.751 945.427 538.955 947.228 540.478 948.74C542.001 950.251 543.811 951.441 545.802 952.24C547.794 953.038 549.925 953.429 552.07 953.388L552.01 953.328Z" fill="black"/>
<path d="M130.059 506.158L130.051 506.183L92.2365 648.686C89.4038 659.362 95.7604 670.314 106.438 673.148C117.114 675.981 128.065 669.624 130.899 658.948L156.286 563.272L308.065 807.084C313.588 816.65 325.82 819.928 335.386 814.405C344.952 808.882 348.229 796.65 342.706 787.084L190.928 543.273L286.478 569.123C297.141 572.007 308.122 565.702 311.006 555.039C313.892 544.375 307.583 533.394 296.923 530.51L154.604 492.006L154.579 492C143.892 489.126 132.902 495.499 130.059 506.158Z" fill="black"/>
</svg>
