<svg width="512" height="488" viewBox="0 0 512 488" fill="none" xmlns="http://www.w3.org/2000/svg">
<path d="M414.043 137.67L329.514 125.387L291.711 48.791C277.11 19.204 234.889 19.213 220.293 48.79L182.49 125.386L97.9607 137.67C65.3077 142.414 52.2737 182.569 75.8917 205.593L137.058 265.215L122.619 349.4C117.042 381.921 151.201 406.725 180.398 391.38L256.003 351.63L331.609 391.38C360.765 406.707 394.964 381.916 389.388 349.4L374.949 265.214L436.116 205.592C459.738 182.56 446.682 142.413 414.043 137.67ZM412.287 181.151L344.696 247.035C342.714 248.967 341.233 251.351 340.378 253.982C339.523 256.614 339.32 259.414 339.788 262.141L355.744 355.172C356.545 359.844 351.684 363.372 347.49 361.169L263.943 317.246C261.493 315.959 258.768 315.286 256.001 315.286C253.234 315.286 250.509 315.959 248.06 317.246L164.513 361.169C160.317 363.374 155.458 359.843 156.259 355.172L172.215 262.141C172.682 259.414 172.48 256.614 171.625 253.982C170.77 251.351 169.288 248.967 167.307 247.035L99.7157 181.151C96.3207 177.842 98.1777 172.13 102.869 171.447L196.277 157.874C199.015 157.476 201.615 156.419 203.854 154.792C206.092 153.166 207.902 151.02 209.127 148.539L250.901 63.896C252.998 59.648 259.005 59.645 261.103 63.897L302.877 148.539C304.101 151.02 305.911 153.166 308.149 154.793C310.388 156.419 312.988 157.476 315.727 157.874L409.135 171.447C413.825 172.13 415.681 177.843 412.287 181.151ZM134.732 35.152L114.321 7.059C108.779 -0.565002 98.1067 -2.257 90.4827 3.285C82.8577 8.825 81.1667 19.498 86.7077 27.123L107.119 55.215C112.663 62.843 123.335 64.528 130.957 58.989C138.582 53.45 140.273 42.777 134.732 35.152ZM66.9977 286.907C64.0867 277.944 54.4587 273.034 45.4927 275.95L11.7967 286.899C2.83266 289.812 -2.07233 299.439 0.839665 308.404C3.75667 317.383 13.4007 322.271 22.3447 319.361L56.0407 308.412C65.0057 305.499 69.9107 295.871 66.9977 286.907ZM421.52 3.286C413.896 -2.254 403.223 -0.565003 397.682 7.06L377.271 35.152C371.73 42.777 373.421 53.451 381.046 58.99C388.674 64.532 399.346 62.838 404.884 55.216L425.295 27.124C430.835 19.499 429.145 8.825 421.52 3.286ZM500.204 286.899L466.508 275.95C457.544 273.032 447.916 277.943 445.003 286.907C442.09 295.871 446.995 305.5 455.96 308.412L489.656 319.361C498.601 322.27 508.244 317.382 511.161 308.404C514.074 299.44 509.168 289.812 500.204 286.899ZM256.001 419.205C246.576 419.205 238.935 426.846 238.935 436.271V470.909C238.935 480.334 246.576 487.975 256.001 487.975C265.426 487.975 273.067 480.334 273.067 470.909V436.271C273.068 426.845 265.427 419.205 256.001 419.205Z" fill="black"/>
</svg>
