<svg width="776" height="1085" viewBox="0 0 776 1085" fill="none" xmlns="http://www.w3.org/2000/svg">
<path d="M535.891 1084.41C599.504 1084.33 660.488 1059.03 705.469 1014.05C750.45 969.064 775.756 908.08 775.836 844.467C775.788 780.833 750.497 719.818 705.512 674.81C660.527 629.803 599.525 604.481 535.891 604.401C472.236 604.449 411.202 629.757 366.191 674.768C321.181 719.778 295.873 780.812 295.825 844.467C295.905 908.111 321.235 969.123 366.255 1014.11C411.276 1059.1 472.246 1084.38 535.891 1084.41ZM535.891 1052.42C508.557 1052.46 481.483 1047.11 456.221 1036.67C430.958 1026.23 408.003 1010.92 388.669 991.593C369.335 972.27 354.003 949.324 343.55 924.067C333.097 898.811 327.729 871.74 327.753 844.406C327.745 817.074 333.124 790.008 343.581 764.755C354.039 739.503 369.371 716.558 388.701 697.234C408.031 677.91 430.979 662.585 456.235 652.134C481.491 641.684 508.558 636.313 535.891 636.329C563.225 636.305 590.295 641.673 615.552 652.126C640.808 662.579 663.755 677.911 683.077 697.245C702.4 716.579 717.719 739.534 728.157 764.797C738.595 790.059 743.948 817.133 743.908 844.467C743.94 871.793 738.581 898.857 728.138 924.109C717.696 949.361 702.374 972.306 683.052 991.628C663.729 1010.95 640.785 1026.27 615.533 1036.71C590.281 1047.16 563.217 1052.52 535.891 1052.48L535.891 1052.42Z" fill="black"/>
<path d="M614.659 914.237C614.859 916.237 614.659 918.137 614.059 919.937C613.659 921.137 613.059 922.137 612.259 922.937C611.659 923.737 610.859 924.537 609.859 925.337C608.059 926.537 605.859 927.638 603.259 928.638C601.659 929.038 600.059 929.338 598.459 929.538C597.059 929.938 595.559 929.938 593.959 929.538C590.759 929.338 587.959 928.137 585.559 925.937C582.159 923.137 579.359 920.037 577.159 916.637C576.159 915.037 575.059 913.237 573.859 911.237C572.659 909.237 571.559 907.137 570.559 904.937L537.259 841.637C535.659 841.637 534.059 841.737 532.459 841.937C530.859 841.937 529.259 842.037 527.659 842.237C523.459 842.637 519.459 842.737 515.659 842.537C512.059 842.337 508.259 842.337 504.259 842.537H498.559V896.837C498.559 898.437 498.459 899.937 498.259 901.337C498.259 902.737 498.259 904.237 498.259 905.837C498.259 906.837 498.159 908.137 497.959 909.737C497.959 911.337 497.859 912.837 497.659 914.237C497.259 916.437 496.359 918.737 494.959 921.137C493.559 923.337 491.659 925.237 489.259 926.837C485.059 929.438 479.959 930.138 473.959 928.938C471.359 928.338 468.859 927.337 466.459 925.937C465.659 925.337 464.959 924.637 464.359 923.837C463.759 922.837 463.259 921.837 462.859 920.837C462.459 919.837 462.059 918.837 461.659 917.837C461.459 916.637 461.159 915.537 460.759 914.537C460.159 912.537 459.859 910.637 459.859 908.837V738.437C459.859 737.237 459.859 736.037 459.859 734.837C460.059 733.437 460.259 732.237 460.459 731.237C460.659 729.037 461.359 726.837 462.559 724.637C463.159 722.237 464.159 720.537 465.559 719.537C466.759 718.337 468.559 717.337 470.959 716.537C473.559 715.537 477.259 715.137 482.059 715.337C491.059 715.537 499.959 715.637 508.759 715.637C517.559 715.637 526.359 715.837 535.159 716.237C540.959 716.637 547.059 717.337 553.459 718.337C560.059 719.137 566.159 720.637 571.759 722.837C575.359 724.237 578.659 725.637 581.659 727.037C585.459 729.237 588.459 731.337 590.659 733.337C597.659 739.737 602.959 747.437 606.559 756.437C610.159 765.437 611.959 774.537 611.959 783.737C611.959 794.537 609.359 804.437 604.159 813.437C599.159 822.437 591.059 829.137 579.859 833.537C579.459 833.937 578.859 834.237 578.059 834.437C577.459 834.437 576.959 834.537 576.559 834.737L604.159 890.237L606.859 895.037C607.259 895.837 607.759 896.737 608.359 897.737C608.959 898.737 609.459 899.737 609.859 900.737C610.459 901.737 610.959 902.837 611.359 904.037C611.959 905.237 612.559 906.337 613.159 907.337C613.759 910.137 614.259 912.437 614.659 914.237ZM539.659 807.437C543.259 807.437 546.659 806.837 549.859 805.637C553.259 804.237 556.259 802.437 558.859 800.237C561.659 798.037 563.959 795.537 565.759 792.737C567.559 789.737 568.559 786.537 568.759 783.137C569.559 773.137 566.959 765.737 560.959 760.937C554.959 755.937 547.059 753.237 537.259 752.837C531.459 752.437 525.059 752.237 518.059 752.237C511.259 752.237 504.759 752.237 498.559 752.237C498.759 760.437 498.759 768.837 498.559 777.438C498.559 785.837 498.559 795.837 498.559 807.437H539.659Z" fill="black"/>
<path d="M114.121 525.191L114.114 525.216L76.299 667.72C73.4663 678.395 79.8229 689.347 90.5004 692.181C101.177 695.015 112.128 688.657 114.962 677.981L140.349 582.305L292.128 826.117C297.651 835.683 309.882 838.961 319.448 833.438C329.015 827.915 332.292 815.683 326.769 806.117L174.99 562.306L270.541 588.156C281.203 591.04 292.185 584.735 295.069 574.072C297.954 563.408 291.646 552.427 280.985 549.543L138.667 511.04L138.641 511.033C127.954 508.159 116.965 514.533 114.121 525.191Z" fill="black"/>
<path d="M255.969 16.0254C192.356 16.1054 131.371 41.411 86.3901 86.3921C41.409 131.373 16.1034 192.358 16.0234 255.971C16.0714 319.604 41.3629 380.62 86.3475 425.627C131.332 470.634 192.335 495.957 255.969 496.037C319.623 495.989 380.657 470.681 425.668 425.67C470.679 380.659 495.987 319.625 496.035 255.971C495.955 192.326 470.624 131.314 425.604 86.3281C380.584 41.3417 319.613 16.0574 255.969 16.0254ZM255.969 48.0141C283.303 47.9743 310.376 53.3268 335.639 63.765C360.901 74.2033 383.857 89.5223 403.19 108.845C422.524 128.167 437.856 151.114 448.309 176.37C458.762 201.627 464.13 228.697 464.107 256.031C464.115 283.364 458.736 310.43 448.278 335.682C437.82 360.935 422.488 383.879 403.158 403.203C383.829 422.527 360.88 437.853 335.624 448.303C310.369 458.754 283.301 464.124 255.969 464.109C228.635 464.132 201.564 458.764 176.308 448.311C151.051 437.858 128.105 422.526 108.782 403.192C89.4598 383.859 74.1409 360.903 63.7026 335.641C53.2643 310.378 47.9119 283.305 47.9516 255.971C47.9198 228.644 53.2786 201.58 63.7212 176.328C74.1637 151.076 89.4849 128.132 108.807 108.809C128.13 89.4869 151.074 74.1657 176.326 63.7231C201.578 53.2805 228.642 47.9218 255.969 47.9536V48.0141ZM255.787 128.076C251.558 128.156 247.532 129.904 244.587 132.94C241.642 135.976 240.016 140.053 240.065 144.282V157.767C214.244 162.605 192.112 179.234 192.112 208.078C192.112 228.033 201.183 244.239 213.277 253.673C225.371 263.106 239.037 267.218 251.01 271.209C263.044 275.261 273.384 279.07 279.25 283.666C285.176 288.201 287.957 292.132 287.957 304.105C287.957 330.712 224.101 330.712 224.101 304.105C224.235 301.922 223.921 299.734 223.178 297.677C222.435 295.62 221.279 293.737 219.78 292.143C218.282 290.55 216.473 289.28 214.466 288.412C212.458 287.544 210.294 287.096 208.107 287.096C205.919 287.096 203.755 287.544 201.748 288.412C199.74 289.28 197.931 290.55 196.433 292.143C194.934 293.737 193.778 295.62 193.035 297.677C192.292 299.734 191.978 301.922 192.112 304.105C192.112 332.888 214.244 349.578 240.065 354.416L240.065 367.84C239.931 370.023 240.245 372.211 240.988 374.268C241.731 376.325 242.887 378.208 244.386 379.802C245.884 381.395 247.693 382.665 249.7 383.533C251.708 384.401 253.872 384.849 256.059 384.849C258.247 384.849 260.411 384.401 262.418 383.533C264.426 382.665 266.235 381.395 267.733 379.802C269.231 378.208 270.388 376.325 271.131 374.268C271.874 372.211 272.188 370.023 272.054 367.84V354.355C297.874 349.518 320.006 332.828 320.006 304.044C320.006 284.029 310.936 267.823 298.842 258.45C286.748 249.017 273.082 244.784 261.109 240.793C249.075 236.802 238.735 232.992 232.809 228.457C226.943 223.861 224.101 219.991 224.101 208.018C224.101 181.351 287.957 181.351 287.957 208.018C287.957 212.268 289.646 216.344 292.651 219.349C295.656 222.354 299.732 224.042 303.982 224.042C308.232 224.042 312.308 222.354 315.313 219.349C318.318 216.344 320.006 212.268 320.006 208.018C320.006 179.234 297.874 162.605 272.054 157.707V144.222C272.078 142.077 271.672 139.948 270.859 137.963C270.045 135.978 268.842 134.176 267.319 132.665C265.796 131.153 263.986 129.963 261.994 129.164C260.003 128.366 257.872 127.975 255.727 128.016L255.787 128.076Z" fill="black"/>
<path d="M677.738 575.246L677.746 575.221L715.56 432.718C718.393 422.042 712.036 411.09 701.359 408.256C690.683 405.423 679.731 411.78 676.898 422.456L651.51 518.132L499.731 274.32C494.208 264.754 481.977 261.477 472.411 267C462.845 272.523 459.567 284.754 465.09 294.32L616.869 538.131L521.319 512.281C510.656 509.397 499.675 515.703 496.79 526.365C493.905 537.03 500.214 548.011 510.874 550.895L653.193 589.398L653.218 589.404C663.905 592.279 674.895 585.905 677.738 575.246Z" fill="black"/>
</svg>
