<svg width="441" height="440" viewBox="0 0 441 440" fill="none" xmlns="http://www.w3.org/2000/svg">
<path d="M415.515 41.3227C422.278 31.8293 410.075 19.7547 400.635 26.528C331.035 74.3787 264.614 127.403 204.966 187.605C145.638 248.011 92.1874 313.643 44.6993 383.36C36.486 395.285 32.8487 404.053 33.5954 406.965C31.9314 412.213 44.2833 407.019 58.4273 397.451C196.827 300.789 319.579 180.544 415.515 41.3227ZM56.966 384.96C143.899 269.824 245.094 166.304 360.87 80.6293C274.246 195.232 170.129 296.597 56.966 384.96ZM439.569 120.427C438.971 117.504 429.638 120.395 418.161 127.605C300.379 202.795 197.457 306.197 121.222 423.371C114.918 432.384 126.737 444.651 136.027 438.059C253.403 362.133 357.179 259.371 431.899 141.237C438.918 130.261 441.286 122.325 439.569 120.427ZM171.793 387.637C240.177 293.643 325.915 208.747 419.537 139.936C351.003 233.952 266.011 319.435 171.793 387.637ZM315.558 22.8693C321.862 13.1733 323.185 7.936 324.731 2.38933C324.902 -1.184 315.035 1.80267 302.897 9.45067C182.929 85.76 79.6007 188.651 1.95802 307.968C-4.43132 317.056 7.48335 329.109 16.6887 322.699C135.633 244.939 238.481 142.101 315.558 22.8693ZM53.0727 271.531C122.097 176.907 206.833 93.4933 301.211 24.0747C231.281 117.845 147.569 202.443 53.0727 271.531Z" fill="black"/>
</svg>
