<svg width="480" height="480" viewBox="0 0 480 480" fill="none" xmlns="http://www.w3.org/2000/svg">
<path d="M433.088 176H431.04C428.038 175.973 425.114 175.043 422.648 173.331C420.182 171.619 418.289 169.204 417.216 166.4C416.086 163.693 415.787 160.711 416.357 157.833C416.926 154.955 418.339 152.312 420.416 150.24L421.872 148.784C430.649 139.974 435.577 128.044 435.577 115.608C435.577 103.172 430.649 91.2425 421.872 82.432L397.696 58.272C388.892 49.4884 376.964 44.5554 364.528 44.5554C352.092 44.5554 340.164 49.4884 331.36 58.272L329.904 59.728C327.759 61.7938 325.057 63.1885 322.131 63.7409C319.204 64.2933 316.18 63.9794 313.43 62.8377C310.679 61.696 308.322 59.7762 306.647 57.3138C304.972 54.8515 304.052 51.9537 304 48.976V46.912C303.987 34.4741 299.041 22.5492 290.246 13.7542C281.451 4.95929 269.526 0.0127069 257.088 0H222.912C210.474 0.0127069 198.549 4.95929 189.754 13.7542C180.959 22.5492 176.013 34.4741 176 46.912V48.976C175.922 51.9323 174.989 54.8026 173.313 57.2394C171.637 59.6763 169.291 61.5751 166.559 62.706C163.826 63.837 160.824 64.1515 157.917 63.6116C155.009 63.0717 152.32 61.7005 150.176 59.664L148.8 58.208C139.996 49.4244 128.068 44.4914 115.632 44.4914C103.196 44.4914 91.2676 49.4244 82.464 58.208L58.208 82.368C49.4312 91.1785 44.5032 103.108 44.5032 115.544C44.5032 127.98 49.4312 139.91 58.208 148.72L59.664 150.176C61.7609 152.321 63.1643 155.047 63.6922 158.001C64.22 160.954 63.8478 163.997 62.624 166.736C61.526 169.464 59.6395 171.803 57.2055 173.453C54.7715 175.103 51.9007 175.99 48.96 176H46.912C34.4741 176.013 22.5492 180.959 13.7542 189.754C4.95929 198.549 0.0127069 210.474 0 222.912V257.088C0.0127069 269.526 4.95929 281.451 13.7542 290.246C22.5492 299.041 34.4741 303.987 46.912 304H48.96C51.9619 304.027 54.8862 304.957 57.352 306.669C59.8177 308.381 61.7106 310.796 62.784 313.6C63.9141 316.307 64.2133 319.289 63.6434 322.167C63.0736 325.045 61.6605 327.688 59.584 329.76L58.128 331.216C49.3512 340.026 44.4232 351.956 44.4232 364.392C44.4232 376.828 49.3512 388.758 58.128 397.568L82.288 421.712C91.0902 430.504 103.023 435.443 115.464 435.443C127.905 435.443 139.838 430.504 148.64 421.712L150.096 420.256C152.242 418.161 154.969 416.759 157.921 416.231C160.874 415.703 163.917 416.074 166.656 417.296C169.384 418.389 171.723 420.273 173.374 422.704C175.024 425.136 175.911 428.005 175.92 430.944V433.008C175.916 439.18 177.128 445.293 179.488 450.996C181.849 456.699 185.31 461.881 189.674 466.246C194.039 470.61 199.221 474.071 204.924 476.432C210.627 478.792 216.74 480.004 222.912 480H257.088C269.526 479.987 281.451 475.041 290.246 466.246C299.041 457.451 303.987 445.526 304 433.088V431.024C304.078 428.068 305.011 425.197 306.687 422.761C308.363 420.324 310.709 418.425 313.441 417.294C316.174 416.163 319.176 415.848 322.083 416.388C324.991 416.928 327.68 418.299 329.824 420.336L331.28 421.792C340.084 430.576 352.012 435.509 364.448 435.509C376.884 435.509 388.812 430.576 397.616 421.792L421.792 397.648C430.569 388.838 435.497 376.908 435.497 364.472C435.497 352.036 430.569 340.106 421.792 331.296L420.336 329.84C418.239 327.695 416.836 324.969 416.308 322.015C415.78 319.062 416.152 316.019 417.376 313.28C418.471 310.549 420.357 308.207 422.791 306.554C425.225 304.901 428.098 304.011 431.04 304H433.088C445.526 303.987 457.451 299.041 466.246 290.246C475.041 281.451 479.987 269.526 480 257.088V222.912C479.987 210.474 475.041 198.549 466.246 189.754C457.451 180.959 445.526 176.013 433.088 176ZM448 257.088C447.996 261.042 446.423 264.832 443.628 267.628C440.832 270.423 437.042 271.996 433.088 272H431.04C421.755 272.079 412.699 274.889 405 280.081C397.302 285.272 391.301 292.614 387.748 301.192C384.194 309.771 383.244 319.205 385.016 328.32C386.788 337.435 391.203 345.826 397.712 352.448L399.152 353.904C401.945 356.705 403.514 360.5 403.514 364.456C403.514 368.412 401.945 372.207 399.152 375.008L374.976 399.152C372.18 401.948 368.387 403.519 364.432 403.519C360.477 403.519 356.685 401.948 353.888 399.152L352.448 397.696C345.823 391.195 337.432 386.786 328.32 385.018C319.208 383.25 309.777 384.202 301.202 387.755C292.627 391.307 285.286 397.304 280.093 404.997C274.901 412.691 272.086 421.742 272 431.024V433.088C271.996 437.042 270.423 440.832 267.628 443.628C264.832 446.423 261.042 447.996 257.088 448H222.912C218.958 447.996 215.168 446.423 212.372 443.628C209.577 440.832 208.004 437.042 208 433.088V431.024C207.955 421.724 205.164 412.644 199.978 404.923C194.792 397.203 187.441 391.186 178.848 387.628C170.255 384.07 160.803 383.129 151.677 384.923C142.551 386.717 134.159 391.166 127.552 397.712L126.096 399.168C123.295 401.956 119.504 403.522 115.552 403.522C111.6 403.522 107.809 401.956 105.008 399.168L80.848 375.024C78.0546 372.223 76.486 368.428 76.486 364.472C76.486 360.516 78.0546 356.721 80.848 353.92L82.304 352.464C88.8191 345.842 93.2397 337.447 95.0142 328.329C96.7887 319.21 95.8384 309.77 92.282 301.188C88.7256 292.606 82.7206 285.261 75.0162 280.071C67.3119 274.88 58.2495 272.073 48.96 272H46.912C42.9584 271.996 39.1679 270.423 36.3723 267.628C33.5767 264.832 32.0042 261.042 32 257.088V222.912C32.0042 218.958 33.5767 215.168 36.3723 212.372C39.1679 209.577 42.9584 208.004 46.912 208H48.96C58.2449 207.921 67.3012 205.111 74.9998 199.919C82.6983 194.728 88.6985 187.386 92.2523 178.808C95.8061 170.229 96.7563 160.795 94.9844 151.68C93.2125 142.565 88.7968 134.174 82.288 127.552L80.848 126.096C78.0556 123.297 76.4874 119.505 76.4874 115.552C76.4874 111.599 78.0556 107.807 80.848 105.008L105.008 80.832C107.805 78.0357 111.597 76.4648 115.552 76.4648C119.507 76.4648 123.299 78.0357 126.096 80.832L127.536 82.288C134.159 88.7937 142.55 93.2071 151.663 94.9784C160.777 96.7496 170.21 95.8006 178.788 92.2494C187.365 88.6981 194.709 82.7017 199.903 75.0071C205.098 67.3124 207.914 58.2595 208 48.976V46.912C208.004 42.9584 209.577 39.1679 212.372 36.3723C215.168 33.5767 218.958 32.0042 222.912 32H257.088C261.042 32.0042 264.832 33.5767 267.628 36.3723C270.423 39.1679 271.996 42.9584 272 46.912V48.976C272.082 58.2596 274.895 67.3137 280.087 75.0098C285.279 82.7059 292.622 88.7037 301.2 92.2555C309.777 95.8074 319.211 96.7562 328.324 94.9837C337.437 93.2113 345.827 88.7959 352.448 82.288L353.904 80.832C356.701 78.0357 360.493 76.4648 364.448 76.4648C368.403 76.4648 372.195 78.0357 374.992 80.832L399.152 105.008C401.944 107.807 403.513 111.599 403.513 115.552C403.513 119.505 401.944 123.297 399.152 126.096L397.696 127.552C391.186 134.175 386.77 142.568 384.999 151.684C383.228 160.8 384.179 170.236 387.735 178.815C391.291 187.394 397.293 194.736 404.994 199.926C412.695 205.116 421.754 207.924 431.04 208H433.088C437.042 208.004 440.832 209.577 443.628 212.372C446.423 215.168 447.996 218.958 448 222.912V257.088Z" fill="black"/>
<path d="M240 128C217.848 128 196.194 134.569 177.776 146.875C159.358 159.182 145.003 176.674 136.525 197.139C128.048 217.605 125.831 240.124 130.152 261.85C134.474 283.576 145.141 303.532 160.804 319.196C176.468 334.859 196.424 345.526 218.15 349.848C239.876 354.17 262.395 351.952 282.861 343.475C303.326 334.998 320.818 320.642 333.125 302.224C345.431 283.806 352 262.152 352 240C351.966 210.306 340.155 181.838 319.159 160.841C298.162 139.845 269.694 128.034 240 128ZM240 320C224.177 320 208.71 315.308 195.554 306.518C182.398 297.727 172.145 285.233 166.09 270.615C160.035 255.997 158.45 239.911 161.537 224.393C164.624 208.874 172.243 194.62 183.431 183.431C194.62 172.243 208.874 164.624 224.393 161.537C239.911 158.45 255.997 160.035 270.615 166.09C285.233 172.145 297.727 182.398 306.518 195.554C315.308 208.71 320 224.177 320 240C319.975 261.21 311.538 281.543 296.54 296.54C281.543 311.538 261.21 319.975 240 320Z" fill="black"/>
</svg>
