<svg width="478" height="512" viewBox="0 0 478 512" fill="none" xmlns="http://www.w3.org/2000/svg">
<path d="M375.533 204.8C432.007 204.8 477.933 158.874 477.933 102.4C477.933 45.9264 432.007 0 375.533 0C319.059 0 273.133 45.9264 273.133 102.4C273.133 114.534 275.352 126.123 279.26 136.943L182.048 191.693C172.47 179.803 160.351 170.209 146.579 163.617C132.808 157.026 117.734 153.603 102.466 153.6C45.9928 153.6 0.0664062 199.526 0.0664062 256C0.0664062 312.474 45.9928 358.4 102.466 358.4C117.734 358.397 132.808 354.974 146.579 348.383C160.351 341.791 172.47 332.197 182.048 320.307L279.26 375.057C275.232 386.13 273.159 397.818 273.133 409.6C273.133 466.074 319.059 512 375.533 512C432.007 512 477.933 466.074 477.933 409.6C477.933 353.126 432.007 307.2 375.533 307.2C360.265 307.203 345.192 310.626 331.42 317.217C317.649 323.809 305.529 333.403 295.951 345.293L198.739 290.543C202.648 279.74 204.866 268.134 204.866 256C204.866 243.866 202.648 232.277 198.739 221.457L295.951 166.707C305.529 178.597 317.649 188.191 331.42 194.783C345.192 201.374 360.265 204.797 375.533 204.8ZM375.533 341.333C413.182 341.333 443.8 371.951 443.8 409.6C443.8 447.249 413.182 477.867 375.533 477.867C337.884 477.867 307.266 447.249 307.266 409.6C307.266 371.951 337.884 341.333 375.533 341.333ZM102.466 324.267C64.8173 324.267 34.1997 293.649 34.1997 256C34.1997 218.351 64.8173 187.733 102.466 187.733C140.115 187.733 170.733 218.351 170.733 256C170.733 293.649 140.115 324.267 102.466 324.267ZM375.533 34.1333C413.182 34.1333 443.8 64.7509 443.8 102.4C443.8 140.049 413.182 170.667 375.533 170.667C337.884 170.667 307.266 140.049 307.266 102.4C307.266 64.7509 337.884 34.1333 375.533 34.1333Z" fill="black"/>
</svg>
