<svg width="377" height="512" viewBox="0 0 377 512" fill="none" xmlns="http://www.w3.org/2000/svg">
<path d="M352.788 7.722V39.315M368.585 23.519H336.992M32.5686 370.542V402.135M48.3656 386.339H16.7726M351.913 227.363C343.147 314.248 269.786 382.07 180.591 382.07C85.4906 382.07 8.39062 304.97 8.39062 209.87C8.39062 127.92 65.6506 59.33 142.341 41.94M218.841 41.94C289.958 58.066 344.366 118.221 351.898 192.23M205.441 72.74C233.921 77.89 259.421 91.72 279.091 111.37C304.311 136.61 319.941 171.44 319.941 209.87C319.941 248.29 304.311 283.13 279.091 308.36C253.851 333.59 219.021 349.22 180.591 349.22C142.161 349.22 107.331 333.59 82.0906 308.36L180.591 209.87M180.591 209.87L82.0906 111.37C101.761 91.72 127.261 77.89 155.741 72.74M180.591 209.87V110.4M180.591 209.87L41.2376 209.869M180.591 209.87L82.0956 111.374C56.8686 136.611 41.2376 171.444 41.2376 209.869M180.591 209.87L82.0956 308.364M180.591 209.87L279.086 308.364M180.591 209.87V276.285M319.944 209.869H180.591M319.944 209.869C319.944 171.443 304.313 136.61 279.086 111.374L180.591 209.869M319.944 209.869C319.944 248.294 304.313 283.127 279.086 308.364M180.591 209.869L279.086 308.364M279.086 308.364C253.849 333.591 219.016 349.222 180.591 349.222M41.2376 209.869C41.2376 248.294 56.8686 283.127 82.0956 308.364M82.0956 308.364C107.333 333.591 142.166 349.222 180.591 349.222M180.591 349.222V311.46M219.771 377.59L248.081 462.12H113.101L141.411 377.59M180.591 382.068V413.731M275.286 462.118H85.8956C78.5606 462.118 72.6146 468.064 72.6146 475.399V491.218C72.6146 498.553 78.5606 504.499 85.8956 504.499H275.286C282.621 504.499 288.567 498.553 288.567 491.218V475.4C288.567 468.064 282.621 462.118 275.286 462.118ZM215.328 51.31L191.202 103.61C187.025 112.664 174.157 112.664 169.98 103.61L145.854 51.31C141.709 42.3256 139.563 32.5492 139.563 22.655C139.563 14.285 146.348 7.5 154.718 7.5H206.463C214.833 7.5 221.618 14.285 221.618 22.655C221.618 32.5491 219.472 42.3255 215.328 51.31Z" stroke="black" stroke-width="15" stroke-miterlimit="10" stroke-linecap="round" stroke-linejoin="round"/>
</svg>
