<svg width="760" height="1069" viewBox="0 0 760 1069" fill="none" xmlns="http://www.w3.org/2000/svg">
<path d="M519.891 1068.41C583.504 1068.33 644.488 1043.03 689.469 998.045C734.45 953.064 759.756 892.08 759.836 828.467C759.788 764.833 734.497 703.818 689.512 658.81C644.527 613.803 583.525 588.481 519.891 588.401C456.236 588.449 395.202 613.757 350.191 658.768C305.181 703.778 279.873 764.812 279.825 828.467C279.905 892.111 305.235 953.123 350.255 998.109C395.276 1043.1 456.246 1068.38 519.891 1068.41ZM519.891 1036.42C492.557 1036.46 465.483 1031.11 440.221 1020.67C414.958 1010.23 392.003 994.915 372.669 975.593C353.335 956.27 338.003 933.324 327.55 908.067C317.097 882.811 311.729 855.74 311.753 828.406C311.745 801.074 317.124 774.008 327.581 748.755C338.039 723.503 353.371 700.558 372.701 681.234C392.031 661.91 414.979 646.585 440.235 636.134C465.491 625.684 492.558 620.313 519.891 620.329C547.225 620.305 574.295 625.673 599.552 636.126C624.808 646.579 647.755 661.911 667.077 681.245C686.4 700.579 701.719 723.534 712.157 748.797C722.595 774.059 727.948 801.133 727.908 828.467C727.94 855.793 722.581 882.857 712.138 908.109C701.696 933.361 686.374 956.306 667.052 975.628C647.729 994.951 624.785 1010.27 599.533 1020.71C574.281 1031.16 547.217 1036.52 519.891 1036.48L519.891 1036.42Z" fill="black"/>
<path d="M598.659 898.237C598.859 900.237 598.659 902.137 598.059 903.937C597.659 905.137 597.059 906.137 596.259 906.937C595.659 907.737 594.859 908.537 593.859 909.337C592.059 910.537 589.859 911.638 587.259 912.638C585.659 913.038 584.059 913.338 582.459 913.538C581.059 913.938 579.559 913.938 577.959 913.538C574.759 913.338 571.959 912.137 569.559 909.937C566.159 907.137 563.359 904.037 561.159 900.637C560.159 899.037 559.059 897.237 557.859 895.237C556.659 893.237 555.559 891.137 554.559 888.937L521.259 825.637C519.659 825.637 518.059 825.737 516.459 825.937C514.859 825.937 513.259 826.037 511.659 826.237C507.459 826.637 503.459 826.737 499.659 826.537C496.059 826.337 492.259 826.337 488.259 826.537H482.559V880.837C482.559 882.437 482.459 883.937 482.259 885.337C482.259 886.737 482.259 888.237 482.259 889.837C482.259 890.837 482.159 892.137 481.959 893.737C481.959 895.337 481.859 896.837 481.659 898.237C481.259 900.437 480.359 902.737 478.959 905.137C477.559 907.337 475.659 909.237 473.259 910.837C469.059 913.438 463.959 914.138 457.959 912.938C455.359 912.338 452.859 911.337 450.459 909.937C449.659 909.337 448.959 908.637 448.359 907.837C447.759 906.837 447.259 905.837 446.859 904.837C446.459 903.837 446.059 902.837 445.659 901.837C445.459 900.637 445.159 899.537 444.759 898.537C444.159 896.537 443.859 894.637 443.859 892.837V722.437C443.859 721.237 443.859 720.037 443.859 718.837C444.059 717.437 444.259 716.237 444.459 715.237C444.659 713.037 445.359 710.837 446.559 708.637C447.159 706.237 448.159 704.537 449.559 703.537C450.759 702.337 452.559 701.337 454.959 700.537C457.559 699.537 461.259 699.137 466.059 699.337C475.059 699.537 483.959 699.637 492.759 699.637C501.559 699.637 510.359 699.837 519.159 700.237C524.959 700.637 531.059 701.337 537.459 702.337C544.059 703.137 550.159 704.637 555.759 706.837C559.359 708.237 562.659 709.637 565.659 711.037C569.459 713.237 572.459 715.337 574.659 717.337C581.659 723.737 586.959 731.437 590.559 740.437C594.159 749.437 595.959 758.537 595.959 767.737C595.959 778.537 593.359 788.437 588.159 797.437C583.159 806.437 575.059 813.137 563.859 817.537C563.459 817.937 562.859 818.237 562.059 818.437C561.459 818.437 560.959 818.537 560.559 818.737L588.159 874.237L590.859 879.037C591.259 879.837 591.759 880.737 592.359 881.737C592.959 882.737 593.459 883.737 593.859 884.737C594.459 885.737 594.959 886.837 595.359 888.037C595.959 889.237 596.559 890.337 597.159 891.337C597.759 894.137 598.259 896.437 598.659 898.237ZM523.659 791.437C527.259 791.437 530.659 790.837 533.859 789.637C537.259 788.237 540.259 786.437 542.859 784.237C545.659 782.037 547.959 779.537 549.759 776.737C551.559 773.737 552.559 770.537 552.759 767.137C553.559 757.137 550.959 749.737 544.959 744.937C538.959 739.937 531.059 737.237 521.259 736.837C515.459 736.437 509.059 736.237 502.059 736.237C495.259 736.237 488.759 736.237 482.559 736.237C482.759 744.437 482.759 752.837 482.559 761.438C482.559 769.837 482.559 779.837 482.559 791.437H523.659Z" fill="black"/>
<path d="M98.1211 509.191L98.1137 509.216L60.299 651.72C57.4663 662.395 63.8229 673.347 74.5004 676.181C85.1765 679.015 96.128 672.657 98.9616 661.981L124.349 566.305L276.128 810.117C281.651 819.683 293.882 822.961 303.448 817.438C313.015 811.915 316.292 799.683 310.769 790.117L158.99 546.306L254.541 572.156C265.203 575.04 276.185 568.735 279.069 558.072C281.954 547.408 275.646 536.427 264.985 533.543L122.667 495.04L122.641 495.033C111.954 492.159 100.965 498.533 98.1211 509.191Z" fill="black"/>
<path d="M239.969 0.0253906C176.356 0.105397 115.371 25.411 70.3901 70.3921C25.409 115.373 0.103444 176.358 0.0234375 239.971C0.0714368 303.604 25.3629 364.62 70.3475 409.627C115.332 454.634 176.335 479.957 239.969 480.037C303.623 479.989 364.657 454.681 409.668 409.67C454.679 364.659 479.987 303.625 480.035 239.971C479.955 176.326 454.624 115.314 409.604 70.3281C364.584 25.3417 303.613 0.0573786 239.969 0.0253906ZM239.969 32.0141C267.303 31.9743 294.376 37.3268 319.639 47.765C344.901 58.2033 367.857 73.5223 387.19 92.8448C406.524 112.167 421.856 135.114 432.309 160.37C442.762 185.627 448.13 212.697 448.107 240.031C448.115 267.364 442.736 294.43 432.278 319.682C421.82 344.935 406.488 367.879 387.158 387.203C367.829 406.527 344.88 421.853 319.624 432.303C294.369 442.754 267.301 448.124 239.969 448.109C212.635 448.132 185.564 442.764 160.308 432.311C135.051 421.858 112.105 406.526 92.7823 387.192C73.4598 367.859 58.1409 344.903 47.7026 319.641C37.2643 294.378 31.9119 267.305 31.9516 239.971C31.9198 212.644 37.2786 185.58 47.7212 160.328C58.1637 135.076 73.4849 112.132 92.8074 92.8094C112.13 73.4869 135.074 58.1657 160.326 47.7231C185.578 37.2805 212.642 31.9218 239.969 31.9536V32.0141Z" fill="black"/>
<path d="M327.6 127.9C329.8 130.5 330.9 133.2 330.9 136C330.9 137.2 330.8 138.5 330.6 139.9C330.6 141.1 330.5 142.2 330.3 143.2C329.7 145.4 328.4 147.5 326.4 149.5C324.8 150.7 322.6 151.6 319.8 152.2C318.4 152.6 317 152.9 315.6 153.1C314.2 153.3 312.7 153.6 311.1 154C309.7 154.2 308.3 154.3 306.9 154.3C305.5 154.3 304 154.3 302.4 154.3H287.1C283.5 154.5 279.9 154.6 276.3 154.6C272.9 154.6 269.5 154.6 266.1 154.6C266.3 160.8 266.4 167.5 266.4 174.7C266.4 181.7 266.3 189.9 266.1 199.3C266.1 208.7 266 219.6 265.8 232C265.8 244.4 265.8 258.8 265.8 275.2V298C265.8 300 265.9 301.5 266.1 302.5C266.1 303.3 266.1 304.1 266.1 304.9C266.1 305.5 266 306.3 265.8 307.3C265.4 309.1 265.1 311.2 264.9 313.6C264.9 314.6 264.8 315.6 264.6 316.6C264.4 317.4 264.1 318.3 263.7 319.3C262.9 320.1 262.5 320.7 262.5 321.1L261.6 322.9C260.6 324.9 258.7 326.8 255.9 328.6C251.5 330.8 246.6 331.3 241.2 330.1C237.8 329.7 235.2 328.8 233.4 327.4C231.6 325.6 230.3 323.8 229.5 322C228.3 319.8 227.6 317.7 227.4 315.7C226.8 313.9 226.5 312 226.5 310V155.8C225.3 155.8 222.8 155.8 219 155.8C215.2 155.8 211.1 155.8 206.7 155.8C202.5 155.6 198.5 155.4 194.7 155.2C190.9 155 188.3 154.8 186.9 154.6C185.7 154.4 183.8 154.1 181.2 153.7C178.8 153.3 176.8 152.9 175.2 152.5C171 151.3 167.7 149.4 165.3 146.8C163.1 144.2 162 141.3 162 138.1C162 136.9 162 135.7 162 134.5C162 133.3 162.2 132.2 162.6 131.2C163.2 128.8 164.8 126.8 167.4 125.2C168.2 124.6 169.4 123.9 171 123.1C172.8 122.1 174.5 121.4 176.1 121C178.5 120.2 181.5 119.6 185.1 119.2C186.7 119 188.3 118.9 189.9 118.9C191.5 118.9 193.2 118.9 195 118.9C202 118.9 208.6 118.9 214.8 118.9C221.2 118.9 227.9 118.8 234.9 118.6C246.5 118.4 258 118.4 269.4 118.6C281 118.6 292.5 118.8 303.9 119.2C306.5 119.4 309 119.7 311.4 120.1C313.8 120.5 316.2 121.2 318.6 122.2C320.4 122.8 322.1 123.6 323.7 124.6C325.3 125.4 326.6 126.5 327.6 127.9Z" fill="black"/>
<path d="M661.738 559.246L661.746 559.221L699.56 416.718C702.393 406.042 696.036 395.09 685.359 392.256C674.683 389.423 663.731 395.78 660.898 406.456L635.51 502.132L483.731 258.32C478.208 248.754 465.977 245.477 456.411 251C446.845 256.523 443.567 268.754 449.09 278.32L600.869 522.131L505.319 496.281C494.656 493.397 483.675 499.703 480.79 510.365C477.905 521.03 484.214 532.011 494.874 534.895L637.193 573.398L637.218 573.404C647.905 576.279 658.895 569.905 661.738 559.246Z" fill="black"/>
</svg>
