<svg width="350" height="512" viewBox="0 0 350 512" fill="none" xmlns="http://www.w3.org/2000/svg">
<path d="M175.001 71C183.285 71 190.001 64.284 190.001 56V15C190.001 6.716 183.285 0 175.001 0C166.717 0 160.001 6.716 160.001 15V56C160.001 64.284 166.717 71 175.001 71ZM345.606 53.394C339.749 47.537 330.251 47.537 324.393 53.394L292.393 85.394C286.535 91.251 286.535 100.749 292.393 106.607C298.251 112.465 307.748 112.465 313.606 106.607L345.606 74.607C351.464 68.749 351.464 59.251 345.606 53.394ZM57.6065 106.606C63.4645 100.749 63.4645 91.251 57.6065 85.393L25.6065 53.393C19.7495 47.536 10.2515 47.536 4.3935 53.393C-1.4645 59.25 -1.4645 68.748 4.3935 74.606L36.3935 106.606C42.2525 112.465 51.7495 112.464 57.6065 106.606ZM175.001 105C91.7385 105 24.0005 172.738 24.0005 256C24.0005 333.192 96.0005 370.978 96.0005 416V465C96.0005 490.916 117.085 512 143.001 512H207.001C232.917 512 254.001 490.916 254.001 465V416C254.001 370.963 326 333.224 326 256C326 172.738 258.263 105 175.001 105ZM207.001 482H143.001C133.627 482 126.001 474.374 126.001 465V431H224.001V465C224.001 474.374 216.375 482 207.001 482ZM225.55 401H190.001V340.531C208.581 334.255 222.001 316.671 222.001 296C222.001 287.716 215.285 281 207.001 281C198.717 281 192.001 287.716 192.001 296C192.001 305.374 184.375 313 175.001 313C165.627 313 158.001 305.374 158.001 296C158.001 287.716 151.285 281 143.001 281C134.717 281 128.001 287.716 128.001 296C128.001 316.671 141.421 334.255 160.001 340.531V401H124.451C113.877 349.419 54.0005 316.305 54.0005 256C54.0005 189.28 108.281 135 175.001 135C241.721 135 296 189.28 296 256C296 316.254 236.111 349.479 225.55 401Z" fill="black"/>
</svg>
